<?xml version="1.0" encoding="UTF-8" standalone="no"?><!DOCTYPE svg PUBLIC "-//W3C//DTD SVG 1.1//EN" "http://www.w3.org/Graphics/SVG/1.1/DTD/svg11.dtd"><svg width="100%" height="100%" viewBox="0 0 192 192" version="1.1" xmlns="http://www.w3.org/2000/svg" xmlns:xlink="http://www.w3.org/1999/xlink" xml:space="preserve" xmlns:serif="http://www.serif.com/" style="fill-rule:evenodd;clip-rule:evenodd;stroke-linejoin:round;stroke-miterlimit:2;"><g id="NAV"><path id="know" d="M114.57,80.744c4.105,-0.052 19.069,-1.498 19.509,15.078c0.192,7.26 -4.157,15.4 -16.629,15.175c-5.765,-0.104 -8.842,0.796 -9.848,-2.915c-0.594,-2.19 0.333,-6.765 -0.064,-17.52c-0.187,-5.084 -0.536,-7.953 1.91,-9.246c1.375,-0.726 2.53,-0.617 5.122,-0.572Zm4.255,21.785c0.209,-0.027 0.422,-0.022 0.631,-0.049c3.688,-0.467 4.725,-3.667 4.789,-5.907c0.13,-4.514 -1.761,-6.782 -4.664,-7.28c-2.959,-0.508 -2.858,0.586 -2.953,1.275c-0.26,1.875 -0.113,9.148 -0.093,9.637c0.108,2.631 0.947,2.317 2.29,2.323Zm-42.754,-8.832c0.013,0.172 1.645,10.526 -5.734,15.485c-7.516,5.051 -23.924,2.934 -22.099,-15.361c1.674,-16.781 24.686,-18.244 27.658,-1.261c0.016,0.091 0.011,0.079 0.175,1.137Zm-10.017,-0.369c-0.062,-0.214 -0.113,-0.431 -0.175,-0.645c-1.597,-5.498 -6.908,-4.235 -7.516,1.388c-0.635,5.865 2.343,9.613 5.6,7.862c3.305,-1.776 2.215,-7.907 2.091,-8.605Zm38.949,8.24c-0.162,0.538 -2.106,9.61 -13.099,9.944c-15.683,0.476 -17.202,-17.977 -11.097,-25.796c7.173,-9.186 25.447,-6.771 24.819,11.731c-0.057,1.689 -0.547,3.796 -0.623,4.121Zm-17.291,-5.996c0.227,8.778 6.376,8.003 7.656,3.618c1.349,-4.62 -0.702,-11.462 -4.819,-9.824c-2.771,1.103 -2.831,5.661 -2.838,6.206Zm-53.544,-6.47c-0.124,0.001 -0.248,-0.014 -0.372,-0.013c-4.508,0.046 -4.727,10.63 -1.454,13.185c3.46,2.701 6.144,-1.878 4.587,-1.966c-0.203,-0.011 -4.682,0.818 -4.926,-2.729c-0.282,-4.094 3.443,-3.779 4.548,-3.766c3.198,0.038 3.186,0.027 6.387,-0.007c3.826,-0.041 3.51,3.079 3.429,5.274c-0.135,3.642 -0.106,3.634 0.144,7.265c0.377,5.468 -4.135,5.054 -5.069,4.85c-2.51,-0.547 -2.055,-2.679 -3.3,-1.773c-6.681,4.862 -15.824,0.871 -17.643,-8.21c-1.988,-9.921 3.066,-20.734 13.924,-20.685c12.403,0.056 13.276,11.001 7.629,12.244c-4.371,0.962 -4.738,-3.237 -7.882,-3.669Zm41.604,45.615c-0.508,2.139 -1.371,5.863 -5.471,8.762c-5.839,4.128 -22.872,5.114 -22.683,-13.676c0.107,-10.581 8.858,-17.666 18.872,-14.632c6.903,2.092 11.051,10.048 9.281,19.546Zm-17.522,-2.203c0.146,0.507 0.605,2.774 2.307,3.726c2.506,1.403 6.361,-0.816 5.439,-7.866c-1.001,-7.657 -8.103,-6.337 -8.049,1.169c0.013,1.841 0.246,2.643 0.303,2.97Zm65.619,5.713c0.396,-11.285 0.091,-11.738 -0.075,-18.277c-0.156,-6.147 4.863,-5.366 7.908,-5.261c7.683,0.266 8.579,-0.181 11.15,-0.05c4.616,0.236 4.469,4.236 4.279,5.311c-0.894,5.077 -6.585,3.188 -13.352,3.293c-1.096,0.017 -0.633,2.716 -0.47,2.883c0.333,0.341 6.558,-0.143 8.897,-0.121c4.247,0.04 4.167,3.677 3.934,4.972c-0.666,3.696 -3.831,3.003 -10.419,2.776c-2.017,-0.07 -2.586,-0.332 -2.611,0.975c-0.037,1.939 0.172,2.115 0.929,2.108c2.741,-0.026 8.231,-0.273 8.555,-0.277c0.573,-0.007 5.794,-0.068 5.085,5.044c-0.609,4.394 -4.789,3.881 -7.548,3.788c-6.137,-0.208 -6.123,0.039 -11.277,0.11c-5.609,0.077 -5.112,-4.114 -4.983,-7.274Zm25.141,0c0.396,-11.285 0.091,-11.738 -0.075,-18.277c-0.156,-6.147 4.863,-5.366 7.908,-5.261c7.683,0.266 8.579,-0.181 11.15,-0.05c4.616,0.236 4.469,4.236 4.279,5.311c-0.894,5.077 -6.585,3.188 -13.352,3.293c-1.096,0.017 -0.633,2.716 -0.47,2.883c0.333,0.341 6.558,-0.143 8.897,-0.121c4.247,0.04 4.167,3.677 3.934,4.972c-0.666,3.696 -3.831,3.003 -10.419,2.776c-2.017,-0.07 -2.586,-0.332 -2.611,0.975c-0.037,1.939 0.172,2.115 0.929,2.108c2.741,-0.026 8.231,-0.273 8.555,-0.277c0.573,-0.007 5.794,-0.068 5.085,5.044c-0.609,4.394 -4.789,3.881 -7.548,3.788c-6.137,-0.208 -6.123,0.039 -11.277,0.11c-5.609,0.077 -5.112,-4.114 -4.983,-7.274Zm-114.4,-2.779c4.372,0.073 3.275,-3.358 7.261,-4.052c6.519,-1.135 7.254,11.724 -4.813,14.3c-1.793,0.383 -5.497,0.405 -8.264,-0.657c-11.015,-4.227 -10.054,-19.222 -5.533,-25.042c7.404,-9.532 21.697,-5.54 22.444,2.42c0.586,6.235 -5.9,7.72 -8.322,4.108c-0.462,-0.689 -1.663,-4.227 -4.468,-3.217c-3.809,1.372 -3.632,10.913 1.424,12.101c0.089,0.021 0.182,0.017 0.271,0.038Zm86.935,-5.378c0.047,0.415 0.427,3.748 -2.172,4.754c-2.318,0.897 -8.694,-0.491 -9.09,0.275c-0.714,1.383 2.504,10.344 -4.379,10.751c-6.159,0.364 -4.998,-6.907 -4.955,-8.271c0.425,-13.451 -0.172,-13.447 -0.089,-18.148c0.102,-5.792 5.471,-4.808 8.159,-4.71c8.455,0.309 11.97,-1.305 13.368,2.76c0.141,0.41 1.441,6.136 -4.944,6.01c-2.889,-0.057 -6.705,-0.485 -6.999,-0.041c-0.28,0.422 -0.608,3.506 0.119,3.675c1.366,0.318 7.24,-0.916 9.337,0.358c1.391,0.845 1.48,1.902 1.647,2.587Zm-43.568,-8.821c-0.031,-0.565 -0.231,-2.929 0.509,-4.377c1.729,-3.383 5.207,-1.825 13.288,-2.148c1.883,-0.075 8.032,-1.105 7.88,4.448c-0.145,5.296 -5.626,4.277 -8.268,4.19c-2.631,-0.087 -3.576,-0.268 -3.878,0.098c-0.505,0.612 -0.312,2.737 -0.291,2.975c0.078,0.863 0.431,0.744 3.002,0.649c3.307,-0.123 8.563,-1.255 8.478,4.017c-0.095,5.836 -6.653,3.597 -10.811,3.773c-1.069,0.045 -0.516,0.649 -0.41,5.561c0.145,6.732 -7.227,6.616 -8.944,3.121c-1.448,-2.948 0.173,-3.189 -0.555,-22.306Zm68.011,-16.113c0.126,0.757 0.245,1.649 -0.596,2.951c-1.631,2.525 -6.079,3.757 -8.099,1.73c-0.122,-0.122 -0.246,-0.507 0.218,-0.625c4.201,-1.062 3.827,-3.863 7.85,-4.55c0.55,-0.094 0.554,0.28 0.627,0.494Zm-8.929,3.415c-0.086,0.013 -0.912,0.463 -0.858,-1.44c0.102,-3.624 6.158,-6.266 8.768,-3.722c0.146,0.142 0.25,0.508 -0.202,0.633c-4.387,1.209 -3.295,3.452 -7.709,4.53Z" style="fill:#bbddc7;"/><path id="know1" serif:id="know" d="M108.811,46.632c4.534,1.509 3.984,6.066 6.714,14.567c0.587,1.828 0.999,-1.1 1.873,-4.751c0.96,-4.013 1.294,-10.016 6.567,-9.334c4.06,0.525 4.291,6.437 6.359,13.826c0.277,0.988 0.519,0.812 0.576,0.762c0.705,-0.628 2.271,-10.007 4.049,-12.81c0.217,-0.342 1.353,-2.704 4.58,-2.412c1.686,0.153 4.87,1.719 3.801,6.486c-0.785,3.5 -2.533,6.501 -6.117,17.373c-0.797,2.419 -2.278,7.61 -7.187,6.766c-5.46,-0.938 -5.743,-12.997 -7.083,-11.781c-0.681,0.617 -1.969,8.987 -4.796,11.01c-1.841,1.318 -5.816,1.604 -7.763,-2.668c-1.696,-3.72 -1.197,-3.904 -5.582,-15.282c-1.679,-4.356 -3.557,-8.916 0.167,-11.273c1.465,-0.927 3.538,-0.537 3.842,-0.48Zm-17.769,-0.026c0.244,0.05 2.685,0.368 4.996,1.791c8.582,5.284 8.272,19.249 2.855,24.772c-5.853,5.966 -17.03,5.294 -21.539,-1.457c-5.426,-8.124 -2.757,-26.839 13.689,-25.106Zm-1.263,8.52c-6.63,-1.848 -6.366,15.144 0.362,12.747c3.634,-1.295 4.032,-10.803 -0.362,-12.747Zm-22.764,-8.517c1.457,-0.196 6.257,-0.946 6.084,5.6c-0.212,8.044 -0.33,8.031 -0.11,16.077c0.062,2.279 0.981,8.008 -3.288,8.74c-5.245,0.899 -6.969,-5.046 -12.809,-12.639c-1.144,-1.487 -0.847,0.422 -0.708,2.612c0.213,3.361 1.319,9.451 -3.33,10.031c-6.509,0.812 -5.73,-5.539 -5.661,-7.074c0.485,-10.717 -0.04,-15.503 -0.048,-18.261c-0.015,-5.256 3.929,-5.91 6.599,-4.736c2.704,1.188 7.075,8.619 9.714,12.021c0.872,1.124 0.649,-0.585 0.648,-0.599c-0.324,-7.748 -1.146,-10.375 2.908,-11.77Zm-43.6,-0.011c0.202,-0.031 1.52,-0.235 2.552,-0.007c4.641,1.027 3.229,6.439 3.175,10.247c-0.04,2.824 4.646,-5.107 7.034,-8.07c2.896,-3.594 6.447,-2.401 7.627,-0.643c3.327,4.958 -5.579,10.819 -6.104,12.448c-0.343,1.065 4.303,5.294 6.529,7.976c3.646,4.391 0.619,8.89 -3.722,8.517c-4.259,-0.366 -7.075,-7.676 -10.419,-10.964c-1.412,-1.388 -0.84,0.964 -0.7,5.526c0.197,6.396 -5.371,5.696 -6.736,5.102c-3.466,-1.509 -2.402,-4.703 -2.335,-13.977c0.088,-12.186 -1.522,-14.603 3.1,-16.155Z" style="fill:#2a5440;"/></g></svg>