<?xml version="1.0" encoding="UTF-8" standalone="no"?><!DOCTYPE svg PUBLIC "-//W3C//DTD SVG 1.1//EN" "http://www.w3.org/Graphics/SVG/1.1/DTD/svg11.dtd"><svg width="100%" height="100%" viewBox="0 0 192 192" version="1.1" xmlns="http://www.w3.org/2000/svg" xmlns:xlink="http://www.w3.org/1999/xlink" xml:space="preserve" xmlns:serif="http://www.serif.com/" style="fill-rule:evenodd;clip-rule:evenodd;stroke-linejoin:round;stroke-miterlimit:2;"><g id="NAV"><path id="make" d="M114.57,80.744c4.105,-0.052 19.069,-1.498 19.509,15.078c0.192,7.26 -4.157,15.4 -16.629,15.175c-5.765,-0.104 -8.842,0.796 -9.848,-2.915c-0.594,-2.19 0.333,-6.765 -0.064,-17.52c-0.187,-5.084 -0.536,-7.953 1.91,-9.246c1.375,-0.726 2.53,-0.617 5.122,-0.572Zm4.255,21.785c0.209,-0.027 0.422,-0.022 0.631,-0.049c3.688,-0.467 4.725,-3.667 4.789,-5.907c0.13,-4.514 -1.761,-6.782 -4.664,-7.28c-2.959,-0.508 -2.858,0.586 -2.953,1.275c-0.26,1.875 -0.113,9.148 -0.093,9.637c0.108,2.631 0.947,2.317 2.29,2.323Zm-42.754,-8.832c0.013,0.172 1.645,10.526 -5.734,15.485c-7.516,5.051 -23.924,2.934 -22.099,-15.361c1.674,-16.781 24.686,-18.244 27.658,-1.261c0.016,0.091 0.011,0.079 0.175,1.137Zm-10.017,-0.369c-0.062,-0.214 -0.113,-0.431 -0.175,-0.645c-1.597,-5.498 -6.908,-4.235 -7.516,1.388c-0.635,5.865 2.343,9.613 5.6,7.862c3.305,-1.776 2.215,-7.907 2.091,-8.605Zm38.949,8.24c-0.162,0.538 -2.106,9.61 -13.099,9.944c-15.683,0.476 -17.202,-17.977 -11.097,-25.796c7.173,-9.186 25.447,-6.771 24.819,11.731c-0.057,1.689 -0.547,3.796 -0.623,4.121Zm-17.291,-5.996c0.227,8.778 6.376,8.003 7.656,3.618c1.349,-4.62 -0.702,-11.462 -4.819,-9.824c-2.771,1.103 -2.831,5.661 -2.838,6.206Zm-53.544,-6.47c-0.124,0.001 -0.248,-0.014 -0.372,-0.013c-4.508,0.046 -4.727,10.63 -1.454,13.185c3.46,2.701 6.144,-1.878 4.587,-1.966c-0.203,-0.011 -4.682,0.818 -4.926,-2.729c-0.282,-4.094 3.443,-3.779 4.548,-3.766c3.198,0.038 3.186,0.027 6.387,-0.007c3.826,-0.041 3.51,3.079 3.429,5.274c-0.135,3.642 -0.106,3.634 0.144,7.265c0.377,5.468 -4.135,5.054 -5.069,4.85c-2.51,-0.547 -2.055,-2.679 -3.3,-1.773c-6.681,4.862 -15.824,0.871 -17.643,-8.21c-1.988,-9.921 3.066,-20.734 13.924,-20.685c12.403,0.056 13.276,11.001 7.629,12.244c-4.371,0.962 -4.738,-3.237 -7.882,-3.669Zm41.604,45.615c-0.508,2.139 -1.371,5.863 -5.471,8.762c-5.839,4.128 -22.872,5.114 -22.683,-13.676c0.107,-10.581 8.858,-17.666 18.872,-14.632c6.903,2.092 11.051,10.048 9.281,19.546Zm-17.522,-2.203c0.146,0.507 0.605,2.774 2.307,3.726c2.506,1.403 6.361,-0.816 5.439,-7.866c-1.001,-7.657 -8.103,-6.337 -8.049,1.169c0.013,1.841 0.246,2.643 0.303,2.97Zm65.619,5.713c0.396,-11.285 0.091,-11.738 -0.075,-18.277c-0.156,-6.147 4.863,-5.366 7.908,-5.261c7.683,0.266 8.579,-0.181 11.15,-0.05c4.616,0.236 4.469,4.236 4.279,5.311c-0.894,5.077 -6.585,3.188 -13.352,3.293c-1.096,0.017 -0.633,2.716 -0.47,2.883c0.333,0.341 6.558,-0.143 8.897,-0.121c4.247,0.04 4.167,3.677 3.934,4.972c-0.666,3.696 -3.831,3.003 -10.419,2.776c-2.017,-0.07 -2.586,-0.332 -2.611,0.975c-0.037,1.939 0.172,2.115 0.929,2.108c2.741,-0.026 8.231,-0.273 8.555,-0.277c0.573,-0.007 5.794,-0.068 5.085,5.044c-0.609,4.394 -4.789,3.881 -7.548,3.788c-6.137,-0.208 -6.123,0.039 -11.277,0.11c-5.609,0.077 -5.112,-4.114 -4.983,-7.274Zm25.141,0c0.396,-11.285 0.091,-11.738 -0.075,-18.277c-0.156,-6.147 4.863,-5.366 7.908,-5.261c7.683,0.266 8.579,-0.181 11.15,-0.05c4.616,0.236 4.469,4.236 4.279,5.311c-0.894,5.077 -6.585,3.188 -13.352,3.293c-1.096,0.017 -0.633,2.716 -0.47,2.883c0.333,0.341 6.558,-0.143 8.897,-0.121c4.247,0.04 4.167,3.677 3.934,4.972c-0.666,3.696 -3.831,3.003 -10.419,2.776c-2.017,-0.07 -2.586,-0.332 -2.611,0.975c-0.037,1.939 0.172,2.115 0.929,2.108c2.741,-0.026 8.231,-0.273 8.555,-0.277c0.573,-0.007 5.794,-0.068 5.085,5.044c-0.609,4.394 -4.789,3.881 -7.548,3.788c-6.137,-0.208 -6.123,0.039 -11.277,0.11c-5.609,0.077 -5.112,-4.114 -4.983,-7.274Zm-114.4,-2.779c4.372,0.073 3.275,-3.358 7.261,-4.052c6.519,-1.135 7.254,11.724 -4.813,14.3c-1.793,0.383 -5.497,0.405 -8.264,-0.657c-11.015,-4.227 -10.054,-19.222 -5.533,-25.042c7.404,-9.532 21.697,-5.54 22.444,2.42c0.586,6.235 -5.9,7.72 -8.322,4.108c-0.462,-0.689 -1.663,-4.227 -4.468,-3.217c-3.809,1.372 -3.632,10.913 1.424,12.101c0.089,0.021 0.182,0.017 0.271,0.038Zm86.935,-5.378c0.047,0.415 0.427,3.748 -2.172,4.754c-2.318,0.897 -8.694,-0.491 -9.09,0.275c-0.714,1.383 2.504,10.344 -4.379,10.751c-6.159,0.364 -4.998,-6.907 -4.955,-8.271c0.425,-13.451 -0.172,-13.447 -0.089,-18.148c0.102,-5.792 5.471,-4.808 8.159,-4.71c8.455,0.309 11.97,-1.305 13.368,2.76c0.141,0.41 1.441,6.136 -4.944,6.01c-2.889,-0.057 -6.705,-0.485 -6.999,-0.041c-0.28,0.422 -0.608,3.506 0.119,3.675c1.366,0.318 7.24,-0.916 9.337,0.358c1.391,0.845 1.48,1.902 1.647,2.587Zm-43.568,-8.821c-0.031,-0.565 -0.231,-2.929 0.509,-4.377c1.729,-3.383 5.207,-1.825 13.288,-2.148c1.883,-0.075 8.032,-1.105 7.88,4.448c-0.145,5.296 -5.626,4.277 -8.268,4.19c-2.631,-0.087 -3.576,-0.268 -3.878,0.098c-0.505,0.612 -0.312,2.737 -0.291,2.975c0.078,0.863 0.431,0.744 3.002,0.649c3.307,-0.123 8.563,-1.255 8.478,4.017c-0.095,5.836 -6.653,3.597 -10.811,3.773c-1.069,0.045 -0.516,0.649 -0.41,5.561c0.145,6.732 -7.227,6.616 -8.944,3.121c-1.448,-2.948 0.173,-3.189 -0.555,-22.306Zm68.011,-16.113c0.126,0.757 0.245,1.649 -0.596,2.951c-1.631,2.525 -6.079,3.757 -8.099,1.73c-0.122,-0.122 -0.246,-0.507 0.218,-0.625c4.201,-1.062 3.827,-3.863 7.85,-4.55c0.55,-0.094 0.554,0.28 0.627,0.494Zm-8.929,3.415c-0.086,0.013 -0.912,0.463 -0.858,-1.44c0.102,-3.624 6.158,-6.266 8.768,-3.722c0.146,0.142 0.25,0.508 -0.202,0.633c-4.387,1.209 -3.295,3.452 -7.709,4.53Z" style="fill:#bbddc7;"/><path id="make1" serif:id="make" d="M34.369,68.9c-2.252,0.008 -3.235,-0.447 -5.119,-4.483c-1.536,-3.291 0.429,6.065 -0.276,9.085c-0.113,0.487 -0.908,3.895 -5.355,3.22c-0.254,-0.039 -2.753,-0.354 -3.353,-3.332c-0.486,-2.409 0.453,-7.364 -0.096,-19.182c-0.052,-1.121 -1.037,-7.628 5.108,-7.151c4.204,0.327 5.348,5.38 8.259,9.887c1.045,1.618 1.547,0.027 3.992,-4.594c1.252,-2.366 3.049,-6.281 7.489,-5.138c3.855,0.993 3.103,5.181 2.952,9.321c-0.53,14.516 1.221,16.707 -1.106,19.032c-1.875,1.873 -8.123,2.506 -7.937,-4.177c0.103,-3.713 0.881,-9.156 -0.083,-7.187c-1.54,3.147 -2.331,4.155 -4.476,4.698Zm84.47,-3.446c-5.145,-0.154 -5.182,-0.246 -5.439,-0.06c-0.322,0.233 -0.164,2.165 -0.126,2.343c0.132,0.614 0.383,0.546 5.122,0.412c2.713,-0.077 8.828,-1.219 8.652,4.017c-0.163,4.87 -4.986,4.27 -6.213,4.232c-5.655,-0.175 -5.648,-0.07 -11.307,0.058c-4.879,0.11 -5.28,-2.283 -5.131,-6.287c0.478,-12.89 -0.018,-12.887 -0.038,-17.957c-0.021,-5.554 3.928,-5.102 6.723,-5.006c8.216,0.283 8.213,-0.205 11.531,-0.021c4.827,0.267 5.059,6.406 1.783,7.938c-2.172,1.015 -8.911,0.02 -10.652,0.226c-0.878,0.104 -0.535,2.561 -0.339,2.743c0.352,0.326 6.194,-0.168 8.539,-0.118c3.581,0.076 3.677,3.034 3.69,3.438c0.158,4.846 -4.022,4.124 -6.795,4.043Zm-34.013,-17.927c3.225,1.903 2.125,4.771 2.03,9.563c-0.054,2.727 4.056,-4.252 6.663,-7.576c0.234,-0.299 1.978,-2.949 5.15,-2.413c2.531,0.428 4.866,3.787 1.386,8.175c-2.754,3.473 -5.443,4.995 -4.783,6.112c1.545,2.611 7.216,7.021 7.728,9.889c0.838,4.697 -4.922,8.036 -8.931,3.152c-3.9,-4.752 -7.367,-11.193 -7.21,-7.807c0.228,4.899 0.984,8.6 -2.484,9.888c-0.729,0.271 -6.228,1.514 -6.321,-4.676c-0.02,-1.35 0.484,-8.493 0.053,-18.066c-0.099,-2.187 -0.461,-5.849 3.488,-6.659c1.541,-0.316 2.992,0.315 3.231,0.419Zm-20.523,23.358c-2.727,-0.017 -4.213,-0.015 -4.773,0.153c-0.619,0.185 -1.09,1.736 -1.112,1.789c-2.235,5.554 -6.391,3.922 -7.383,3.174c-3.388,-2.555 -0.463,-8.253 0.43,-10.366c6.606,-15.636 6.513,-15.769 8.332,-17.479c1.596,-1.5 4.13,-1.419 5.594,-0.774c0.774,0.341 2.803,1.234 5.635,8.949c3.023,8.236 4.564,11.024 5.322,13.41c1.805,5.681 -2.665,6.857 -3.179,6.957c-4.163,0.808 -5.52,-3.157 -5.774,-3.861c-0.698,-1.937 -1.039,-1.896 -3.091,-1.951Zm0.508,-7.244c-0.105,-0.361 -1.029,-3.543 -1.482,-4.457c-0.167,-0.337 -0.532,-0.296 -0.64,-0.162c-0.301,0.372 -1.595,4.451 -1.67,4.73c-0.167,0.616 0.343,0.644 1.29,0.652c2.222,0.02 2.578,0.028 2.502,-0.763Z" style="fill:#2a5440;"/></g></svg>