<svg width="212" height="40" viewBox="0 0 212 40" fill="none" xmlns="http://www.w3.org/2000/svg">
<path d="M28.4529 13.3524L28.4338 13.2C29.3386 12.7905 30.0148 12.219 30.4529 11.4952C30.9386 10.7048 31.1195 9.75238 30.9957 8.68571C30.8243 7.22857 30.1576 6.13333 29.0148 5.45714C28.1767 4.95238 27.11 4.69524 25.8434 4.69524C25.4338 4.69524 25.0053 4.72381 24.5481 4.77143L18.8434 5.42857C18.7481 5.4381 18.6529 5.49524 18.5862 5.57143C18.5195 5.64762 18.5005 5.75238 18.51 5.84762L20.091 19.5143C20.11 19.7048 20.2719 19.8476 20.4624 19.8476C20.4719 19.8476 22.9481 19.5619 22.9481 19.5619C23.0434 19.5524 23.1386 19.4952 23.2053 19.419C23.2719 19.3429 23.291 19.2381 23.2814 19.1429L22.7195 14.2667L24.8434 14.019L29.1386 18.6857C29.2148 18.7619 29.31 18.8095 29.4148 18.8095C29.4338 18.8095 32.3862 18.4667 32.3862 18.4667C32.5291 18.4476 32.6434 18.3524 32.7005 18.219C32.7576 18.0857 32.7195 17.9333 32.6243 17.8286L28.4529 13.3333V13.3524ZM27.2624 10.2667C26.8434 10.6095 26.1576 10.8381 25.2243 10.9429L22.3862 11.2667L22.0814 8.60952L22.5195 8.04762L24.8624 7.78095C25.1481 7.75238 25.4148 7.73333 25.6624 7.73333C26.2148 7.73333 26.6624 7.81905 27.0053 7.98095C27.4529 8.2 27.691 8.54286 27.7481 9.05714C27.8053 9.57143 27.6624 9.95238 27.2719 10.2571L27.2624 10.2667ZM99.2814 11.5238L91.4624 11.6762L90.9481 11.181L90.9005 8.77143L97.91 8.63809C98.1195 8.63809 98.2814 8.46667 98.2814 8.25714L98.2338 5.99048C98.2338 5.88571 98.1862 5.79048 98.1195 5.72381C98.0529 5.65714 97.9576 5.61905 97.8624 5.61905L90.8434 5.76191L90.8053 3.73333L91.3005 3.21905L98.8719 3.06667C99.0814 3.06667 99.2434 2.89524 99.2434 2.68571L99.1957 0.419048C99.1957 0.314286 99.1481 0.219048 99.0814 0.152381C99.0148 0.0857143 98.9195 0.047619 98.8243 0.047619L87.9195 0.266667C87.71 0.266667 87.5481 0.447619 87.5481 0.647619L87.8148 14.4095C87.8148 14.619 87.9862 14.781 88.1957 14.781L99.3386 14.5619C99.4338 14.5619 99.5291 14.5143 99.6053 14.4476C99.6719 14.3714 99.71 14.2762 99.71 14.181L99.6624 11.9143C99.6624 11.7048 99.491 11.5429 99.2814 11.5429V11.5238ZM82.1386 0.428571L69.291 1C69.1862 1 69.1005 1.04762 69.0338 1.12381C68.9672 1.2 68.9291 1.29524 68.9386 1.39048L69.0434 3.65714C69.0529 3.85714 69.2148 4.01905 69.4243 4.01905L73.7195 3.82857L74.2434 4.30476L74.7195 14.9048C74.7195 15.0095 74.7672 15.0952 74.8434 15.1619C74.91 15.2286 75.0053 15.2571 75.1005 15.2571L77.6243 15.1429C77.8338 15.1333 77.9957 14.9524 77.9862 14.7524L77.51 4.15238L77.9862 3.62857L82.2719 3.4381C82.3767 3.4381 82.4624 3.39048 82.5291 3.31429C82.5957 3.2381 82.6338 3.14286 82.6243 3.04762L82.5195 0.780952C82.51 0.580952 82.3386 0.419048 82.1386 0.419048V0.428571ZM13.2053 12.5143C13.2053 12.5143 13.1672 12.5143 13.1481 12.5143L7.31954 13.3619C7.2243 13.381 7.12906 13.4286 7.07192 13.5048C7.01478 13.581 6.98621 13.6857 7.00526 13.781L7.31002 15.8857C7.33859 16.0762 7.50049 16.2095 7.68145 16.2095C7.70049 16.2095 7.71954 16.2095 7.73859 16.2095L10.8814 15.7524L11.0148 16.6857C10.5291 17.3524 10.0814 17.8476 9.69097 18.1524C9.29097 18.4667 8.88145 18.6476 8.47192 18.7048C8.28145 18.7333 8.09097 18.7429 7.91002 18.7429C7.09097 18.7429 6.40526 18.4571 5.79573 17.8857C5.04335 17.1619 4.56716 16.1048 4.36716 14.7524C4.16716 13.3905 4.32906 12.2571 4.83383 11.381C5.32906 10.5238 6.09097 10.0286 7.15764 9.86667C7.30049 9.84762 7.43383 9.8381 7.56716 9.8381C8.0243 9.8381 8.4624 9.95238 8.89097 10.181C9.47192 10.4857 10.1291 11.0762 10.8434 11.9333C10.91 12.019 11.0148 12.0667 11.1195 12.0667H11.1386C11.2434 12.0667 11.3386 12.0286 11.4053 11.9524L13.1957 10.1333C13.3291 10 13.3386 9.78095 13.2243 9.63809C12.291 8.45714 11.291 7.61905 10.2624 7.15238C9.51002 6.81905 8.69097 6.64762 7.81478 6.64762C7.4624 6.64762 7.10049 6.67619 6.73859 6.72381C4.8243 7 3.30049 7.96191 2.20526 9.58095C1.11002 11.2 0.719541 13.0952 1.03383 15.2381C1.34811 17.3714 2.20526 19.0857 3.59573 20.3333C4.75764 21.3714 6.09097 21.9048 7.54811 21.9048C7.85287 21.9048 8.17668 21.8857 8.49097 21.8381C9.14811 21.7429 9.75764 21.5238 10.3291 21.1714C10.7862 20.8952 11.1767 20.5429 11.5005 20.1333L11.5767 20.6571C11.5957 20.7524 11.6434 20.8476 11.7195 20.9048C11.7862 20.9524 11.8624 20.981 11.9481 20.981C11.9672 20.981 11.9862 20.981 12.0053 20.981L14.3195 20.6476C14.5291 20.619 14.6719 20.4286 14.6434 20.219L13.5672 12.8286C13.5386 12.6381 13.3767 12.5048 13.1957 12.5048L13.2053 12.5143ZM61.2434 1.74286C61.1767 1.60952 61.0434 1.52381 60.9005 1.52381L57.7195 1.73333C57.5672 1.74286 57.4338 1.84762 57.3862 2L52.9291 16.0952C52.891 16.2095 52.9195 16.3429 52.9957 16.4381C53.0719 16.5333 53.1767 16.581 53.291 16.581L55.9195 16.4095C56.0814 16.4 56.2148 16.2952 56.2529 16.1429L57.3005 12.5714L62.6529 12.2095L64.1672 15.6095C64.2243 15.7429 64.3672 15.8381 64.51 15.8381L67.1862 15.6571C67.31 15.6571 67.4243 15.581 67.4814 15.4762C67.5481 15.3714 67.5481 15.2381 67.5005 15.1238L61.2434 1.74286ZM61.1481 9.41905L58.4053 9.6L58.2434 9.45714L59.4243 5.44762H59.6243L61.3195 9.22857L61.1576 9.41905H61.1481ZM48.3672 13.9524L40.5576 14.6667L40.0148 14.2095L39.7957 11.8095L46.7767 11.1714C46.9862 11.1524 47.1386 10.9714 47.1195 10.7619L46.91 8.50476C46.91 8.40952 46.8529 8.31429 46.7767 8.24762C46.71 8.19048 46.6243 8.1619 46.5386 8.1619C46.5291 8.1619 39.5195 8.8 39.5195 8.8L39.3386 6.78095L39.7957 6.2381L47.3386 5.55238C47.5481 5.53333 47.7005 5.35238 47.6814 5.14286L47.4719 2.88571C47.4719 2.79048 47.4148 2.69524 47.3386 2.62857C47.2719 2.57143 47.1862 2.54286 47.1005 2.54286C47.091 2.54286 36.2243 3.53333 36.2243 3.53333C36.0148 3.55238 35.8624 3.73333 35.8814 3.94286L37.1291 17.6476C37.1291 17.7429 37.1862 17.8381 37.2624 17.9048C37.3291 17.9619 37.4148 17.9905 37.5005 17.9905C37.51 17.9905 48.6148 16.981 48.6148 16.981C48.8243 16.9619 48.9767 16.781 48.9576 16.5714L48.7481 14.3143C48.7291 14.1143 48.5672 13.9714 48.3767 13.9714L48.3672 13.9524ZM176.177 5.39048C175.053 3.8381 173.481 2.9619 171.5 2.78095C171.262 2.7619 171.024 2.74286 170.786 2.74286C169.11 2.74286 167.643 3.33333 166.424 4.48571C165.053 5.79048 164.253 7.55238 164.053 9.71429C163.853 11.8857 164.31 13.7619 165.424 15.2952C166.548 16.8476 168.12 17.7238 170.1 17.9048C170.339 17.9238 170.577 17.9429 170.815 17.9429C172.491 17.9429 173.958 17.3524 175.177 16.2C176.548 14.8952 177.348 13.1333 177.548 10.9714C177.748 8.8 177.291 6.92381 176.177 5.39048ZM174.224 10.6571C174.091 12.0571 173.672 13.1524 172.986 13.9048C172.386 14.5524 171.662 14.8667 170.767 14.8667C170.643 14.8667 170.52 14.8667 170.386 14.8476C169.31 14.7429 168.539 14.2857 168.005 13.4381C167.462 12.5714 167.253 11.419 167.377 10.019C167.51 8.61905 167.92 7.53333 168.615 6.77143C169.215 6.12381 169.939 5.80952 170.834 5.80952C170.958 5.80952 171.081 5.80952 171.215 5.82857C172.281 5.93333 173.062 6.39048 173.596 7.2381C174.139 8.10476 174.348 9.25714 174.224 10.6571ZM187.186 4.73333C187.186 4.73333 183.148 4.26667 183.139 4.26667C183.053 4.26667 182.967 4.29524 182.9 4.35238C182.824 4.41905 182.767 4.50476 182.758 4.60952L181.167 18.2762C181.139 18.4857 181.291 18.6667 181.5 18.6952L185.51 19.1619C185.967 19.219 186.415 19.2381 186.834 19.2381C188.615 19.2381 190.158 18.7714 191.424 17.8476C193.005 16.6952 193.929 15.019 194.186 12.8571C194.434 10.6952 193.92 8.84762 192.653 7.37143C191.386 5.89524 189.548 5.00952 187.196 4.74286L187.186 4.73333ZM190.862 12.4667C190.71 13.7905 190.196 14.7714 189.31 15.4381C188.605 15.9714 187.71 16.2476 186.662 16.2476C186.405 16.2476 186.129 16.2286 185.843 16.2L185.158 16.1238L184.72 15.5619L185.596 8.05714L186.158 7.61905L186.843 7.69524C188.253 7.85714 189.329 8.37143 190.034 9.22857C190.748 10.0857 191.015 11.1524 190.862 12.4762V12.4667ZM158.739 3.86667C157.577 2.34286 155.986 1.50476 154.005 1.37143C153.824 1.3619 153.643 1.35238 153.462 1.35238C151.71 1.35238 150.196 1.97143 148.967 3.2C147.624 4.53333 146.872 6.31429 146.72 8.48571C146.567 10.6571 147.072 12.5238 148.224 14.0286C149.386 15.5524 150.977 16.3905 152.958 16.5333C153.139 16.5429 153.32 16.5524 153.5 16.5524C155.253 16.5524 156.767 15.9333 157.996 14.7048C159.339 13.3714 160.091 11.5905 160.243 9.41905C160.396 7.24762 159.891 5.38095 158.739 3.87619V3.86667ZM156.91 9.18095C156.815 10.581 156.424 11.6857 155.748 12.4571C155.148 13.1429 154.396 13.4762 153.462 13.4762C153.367 13.4762 153.272 13.4762 153.177 13.4667C152.1 13.3905 151.31 12.9524 150.758 12.1143C150.196 11.2571 149.958 10.1143 150.053 8.71429C150.148 7.31429 150.539 6.20952 151.215 5.4381C151.815 4.75238 152.567 4.41905 153.51 4.41905C153.605 4.41905 153.7 4.41905 153.796 4.42857C154.872 4.50476 155.662 4.94286 156.215 5.78095C156.777 6.6381 157.015 7.78095 156.92 9.18095H156.91ZM202.862 9.81905C203.148 9.69524 203.51 9.62857 203.939 9.62857C204.196 9.62857 204.472 9.64762 204.767 9.69524C205.481 9.8 206.167 10.0381 206.815 10.4095C207.462 10.781 208.062 11.2667 208.596 11.8762C208.662 11.9524 208.758 12 208.862 12H208.881C208.977 12 209.072 11.9619 209.139 11.8952L210.948 10.2C211.024 10.1333 211.062 10.0381 211.072 9.93333C211.072 9.82857 211.034 9.73333 210.967 9.66667C210.177 8.84762 209.31 8.18095 208.386 7.69524C207.462 7.20952 206.453 6.87619 205.396 6.72381C204.939 6.65714 204.5 6.62857 204.081 6.62857C202.958 6.62857 201.958 6.86667 201.091 7.34286C199.872 8.00952 199.158 9.00952 198.977 10.3048C198.824 11.3429 199.043 12.2571 199.624 13.019C200.186 13.7524 201.148 14.3905 202.548 14.9524L205.662 16.2095C206.177 16.4095 206.529 16.6381 206.71 16.8857C206.872 17.1048 206.929 17.3714 206.881 17.7048C206.815 18.1429 206.548 18.4381 206.043 18.6476C205.681 18.7905 205.253 18.8667 204.767 18.8667C204.491 18.8667 204.177 18.8381 203.862 18.8C202.977 18.6667 202.12 18.3714 201.339 17.9238C200.548 17.4762 199.891 16.8952 199.358 16.2C199.291 16.1143 199.186 16.0571 199.072 16.0571H199.053C198.948 16.0571 198.853 16.1048 198.777 16.1714L197.043 18.019C196.92 18.1524 196.91 18.3619 197.024 18.5143C197.691 19.3619 198.596 20.0857 199.729 20.6667C200.853 21.2381 202.091 21.6286 203.424 21.819C203.881 21.8857 204.329 21.9238 204.748 21.9238C205.92 21.9238 206.967 21.6667 207.881 21.1619C209.158 20.4571 209.9 19.3905 210.1 18C210.253 16.981 210.034 16.0571 209.453 15.2476C208.891 14.4667 207.996 13.819 206.786 13.3143L203.681 12.0095C202.853 11.6667 202.51 11.4095 202.377 11.2571C202.215 11.0762 202.158 10.8857 202.186 10.6476C202.243 10.2667 202.453 10.0095 202.862 9.8381V9.81905ZM113.92 9.02857V8.87619C114.862 8.58095 115.605 8.09524 116.129 7.42857C116.71 6.69524 117.005 5.78095 117.015 4.70476C117.024 3.2381 116.5 2.07619 115.443 1.25714C114.424 0.457143 112.958 0.047619 111.091 0.0380952L105.339 0C105.243 0 105.148 0.0380952 105.072 0.104762C104.996 0.171429 104.958 0.266667 104.958 0.371429L104.862 14.1333C104.862 14.3429 105.024 14.5143 105.234 14.5143L107.7 14.5333C107.796 14.5333 107.891 14.4952 107.967 14.4286C108.043 14.3619 108.081 14.2667 108.081 14.1619L108.12 9.24762L110.253 9.26667L113.948 14.4286C114.015 14.5238 114.129 14.5905 114.253 14.5905L117.205 14.6095C117.348 14.6095 117.472 14.5333 117.539 14.4095C117.605 14.2857 117.596 14.1333 117.51 14.019L113.92 9.04762V9.02857ZM113.11 5.81905C112.662 6.09524 111.967 6.2381 111.005 6.2381L108.148 6.21905L108.167 3.54286L108.672 3.0381L111.024 3.05714C111.958 3.05714 112.662 3.21905 113.12 3.51429C113.539 3.79048 113.729 4.15238 113.72 4.67619C113.72 5.19048 113.52 5.55238 113.1 5.80952L113.11 5.81905ZM139.758 1.4381C138.824 0.780952 137.681 0.419048 136.377 0.361905C136.262 0.361905 136.158 0.361905 136.043 0.361905C134.253 0.361905 132.681 1.01905 131.396 2.33333C130.034 3.70476 129.3 5.50476 129.205 7.66667C129.11 9.81905 129.634 11.6667 130.767 13.1524C131.92 14.6571 133.443 15.4571 135.3 15.5429H135.52C136.1 15.5429 136.681 15.4381 137.224 15.2286C137.72 15.0381 138.177 14.7714 138.567 14.4381L138.548 14.9714C138.548 15.0762 138.577 15.1714 138.643 15.2381C138.71 15.3048 138.805 15.3524 138.9 15.3619C138.9 15.3619 141.253 15.4667 141.262 15.4667C141.358 15.4667 141.443 15.4286 141.52 15.3714C141.596 15.3048 141.634 15.2095 141.643 15.1143L141.967 7.65714C141.967 7.44762 141.815 7.27619 141.605 7.26667C141.605 7.26667 135.71 7.00952 135.7 7.00952C135.605 7.00952 135.52 7.04762 135.443 7.10476C135.367 7.17143 135.329 7.26667 135.32 7.3619L135.224 9.48571C135.224 9.59048 135.253 9.68571 135.32 9.75238C135.386 9.81905 135.481 9.86667 135.577 9.87619L138.748 10.019L138.71 10.9619C138.11 11.5238 137.586 11.9238 137.139 12.1524C136.729 12.3619 136.329 12.4667 135.853 12.4667H135.843C134.767 12.419 133.958 11.9905 133.377 11.1619C132.777 10.3143 132.5 9.19048 132.567 7.81905C132.624 6.44762 132.996 5.3619 133.653 4.6C134.262 3.89524 135.043 3.54286 136.024 3.54286H136.215C136.834 3.57143 137.367 3.78095 137.862 4.17143C138.377 4.58095 138.91 5.28571 139.453 6.25714C139.5 6.35238 139.596 6.41905 139.701 6.4381C139.729 6.4381 139.758 6.44762 139.786 6.44762C139.862 6.44762 139.939 6.42857 140.005 6.38095L142.1 4.92381C142.253 4.81905 142.31 4.60952 142.224 4.4381C141.529 3.10476 140.71 2.09524 139.777 1.44762L139.758 1.4381ZM131.615 36.6286H123.805L123.3 36.1238V33.7143H130.31C130.52 33.7143 130.691 33.5429 130.691 33.3333V31.0667C130.691 30.8571 130.52 30.6857 130.31 30.6857H123.3V28.6571L123.805 28.1524H131.377C131.586 28.1524 131.758 27.981 131.758 27.7714V25.5048C131.758 25.2952 131.586 25.1238 131.377 25.1238H120.481C120.272 25.1238 120.1 25.2952 120.1 25.5048V39.2762C120.1 39.4857 120.272 39.6571 120.481 39.6571H131.615C131.824 39.6571 131.996 39.4857 131.996 39.2762V37.0095C131.996 36.8 131.824 36.6286 131.615 36.6286ZM177.3 35.9619C176.758 35.9619 176.281 36.1524 175.881 36.5429C175.481 36.9333 175.281 37.4095 175.281 37.9714C175.281 38.5333 175.481 38.9905 175.881 39.3905C176.281 39.7905 176.748 39.9905 177.3 39.9905C177.853 39.9905 178.339 39.7905 178.729 39.3905C179.12 38.9905 179.31 38.5238 179.31 37.9714C179.31 37.419 179.12 36.9333 178.729 36.5429C178.339 36.1524 177.862 35.9619 177.3 35.9619ZM39.5957 27.9714C40.2148 27.9714 40.7576 28.1524 41.2719 28.5238C41.8053 28.9143 42.3672 29.5905 42.9481 30.5429C43.0053 30.6286 43.091 30.6952 43.1957 30.7143C43.2148 30.7143 43.2434 30.7143 43.2624 30.7143C43.3481 30.7143 43.4243 30.6857 43.491 30.6381L45.5195 29.0952C45.6719 28.981 45.71 28.7714 45.6148 28.6095C44.8624 27.3048 43.9957 26.3333 43.0434 25.7238C42.0719 25.1048 40.9195 24.7905 39.6148 24.7905C37.6624 24.7905 36.0053 25.5238 34.71 26.9714C33.4243 28.4 32.7672 30.2286 32.7672 32.3905C32.7672 34.5524 33.4243 36.381 34.71 37.8095C36.0053 39.2571 37.6624 39.9905 39.6148 39.9905C40.9195 39.9905 42.0719 39.6762 43.0434 39.0571C43.9957 38.4476 44.8624 37.4762 45.6148 36.1714C45.71 36.0095 45.6624 35.8 45.5195 35.6857L43.491 34.1429C43.4243 34.0952 43.3481 34.0667 43.2624 34.0667C43.2434 34.0667 43.2148 34.0667 43.1957 34.0667C43.091 34.0857 42.9957 34.1524 42.9481 34.2381C42.3672 35.1905 41.7957 35.8667 41.2719 36.2571C40.7672 36.6286 40.2148 36.8095 39.5957 36.8095C38.5005 36.8095 37.6719 36.4286 37.0529 35.6476C36.4243 34.8476 36.11 33.7524 36.11 32.381C36.11 31.0095 36.4243 29.9143 37.0529 29.1143C37.6624 28.3333 38.5005 27.9524 39.5957 27.9524V27.9714ZM113.881 36.6381H106.072L105.567 36.1333V33.7238H112.577C112.786 33.7238 112.958 33.5524 112.958 33.3429V31.0762C112.958 30.8667 112.786 30.6952 112.577 30.6952H105.567V28.6667L106.072 28.1619H113.643C113.853 28.1619 114.024 27.9905 114.024 27.781V25.5143C114.024 25.3048 113.853 25.1333 113.643 25.1333H102.748C102.539 25.1333 102.367 25.3048 102.367 25.5143V39.2857C102.367 39.4952 102.539 39.6667 102.748 39.6667H113.881C114.091 39.6667 114.262 39.4952 114.262 39.2857V37.019C114.262 36.8095 114.091 36.6381 113.881 36.6381ZM166.31 24.8C164.32 24.8 162.672 25.5333 161.415 26.9714C160.167 28.4 159.539 30.2286 159.539 32.4C159.539 34.5714 160.167 36.4 161.415 37.8286C162.672 39.2667 164.32 40 166.31 40C168.3 40 169.948 39.2667 171.205 37.8286C172.453 36.4 173.081 34.581 173.081 32.4C173.081 30.219 172.453 28.4 171.205 26.9714C169.948 25.5333 168.291 24.8 166.31 24.8ZM168.815 35.7429C168.205 36.5333 167.386 36.9238 166.31 36.9238C165.234 36.9238 164.415 36.5333 163.805 35.7429C163.186 34.9333 162.872 33.8 162.872 32.4C162.872 31 163.186 29.8667 163.805 29.0571C164.415 28.2667 165.234 27.8762 166.31 27.8762C167.386 27.8762 168.205 28.2667 168.815 29.0571C169.434 29.8667 169.748 31 169.748 32.4C169.748 33.8 169.434 34.9333 168.815 35.7429ZM80.1005 25.1333H69.2053C68.9957 25.1333 68.8243 25.3048 68.8243 25.5143V39.2857C68.8243 39.4952 68.9957 39.6667 69.2053 39.6667H71.6434C71.8529 39.6667 72.0243 39.4952 72.0243 39.2857V33.7238H79.0338C79.2434 33.7238 79.4148 33.5524 79.4148 33.3429V31.0762C79.4148 30.8667 79.2434 30.6952 79.0338 30.6952H72.0243V28.6667L72.5291 28.1619H80.1005C80.31 28.1619 80.4814 27.9905 80.4814 27.781V25.5143C80.4814 25.3048 80.31 25.1333 80.1005 25.1333ZM56.6053 24.8C54.6148 24.8 52.9672 25.5333 51.71 26.9714C50.4624 28.4 49.8338 30.2286 49.8338 32.4C49.8338 34.5714 50.4624 36.4 51.71 37.8286C52.9672 39.2667 54.6148 40 56.6053 40C58.5957 40 60.2433 39.2667 61.5005 37.8286C62.7481 36.4 63.3767 34.581 63.3767 32.4C63.3767 30.219 62.7481 28.4 61.5005 26.9714C60.2433 25.5333 58.5862 24.8 56.6053 24.8ZM59.11 35.7429C58.5005 36.5333 57.6814 36.9238 56.6053 36.9238C55.5291 36.9238 54.71 36.5333 54.1005 35.7429C53.4814 34.9333 53.1672 33.8 53.1672 32.4C53.1672 31 53.4814 29.8667 54.1005 29.0571C54.71 28.2667 55.5291 27.8762 56.6053 27.8762C57.6814 27.8762 58.5005 28.2667 59.11 29.0571C59.7291 29.8667 60.0434 31 60.0434 32.4C60.0434 33.8 59.7291 34.9333 59.11 35.7429ZM149.081 27.9714C149.7 27.9714 150.243 28.1524 150.758 28.5238C151.291 28.9143 151.853 29.5905 152.434 30.5429C152.491 30.6286 152.577 30.6952 152.681 30.7143C152.7 30.7143 152.729 30.7143 152.748 30.7143C152.834 30.7143 152.91 30.6857 152.977 30.6381L155.005 29.0952C155.158 28.981 155.196 28.7714 155.1 28.6095C154.348 27.3048 153.481 26.3333 152.529 25.7238C151.558 25.1048 150.405 24.7905 149.1 24.7905C147.148 24.7905 145.491 25.5238 144.196 26.9714C142.91 28.4 142.253 30.2286 142.253 32.3905C142.253 34.5524 142.91 36.381 144.196 37.8095C145.491 39.2571 147.148 39.9905 149.1 39.9905C150.405 39.9905 151.558 39.6762 152.529 39.0571C153.481 38.4476 154.348 37.4762 155.1 36.1714C155.196 36.0095 155.148 35.8 155.005 35.6857L152.977 34.1429C152.91 34.0952 152.834 34.0667 152.748 34.0667C152.729 34.0667 152.7 34.0667 152.681 34.0667C152.577 34.0857 152.481 34.1524 152.434 34.2381C151.853 35.1905 151.281 35.8667 150.758 36.2571C150.253 36.6286 149.7 36.8095 149.081 36.8095C147.986 36.8095 147.158 36.4286 146.539 35.6476C145.91 34.8476 145.596 33.7524 145.596 32.381C145.596 31.0095 145.91 29.9143 146.539 29.1143C147.158 28.3333 147.986 27.9524 149.081 27.9524V27.9714ZM97.11 25.1429H86.2148C86.0053 25.1429 85.8338 25.3143 85.8338 25.5238V39.2952C85.8338 39.5048 86.0053 39.6762 86.2148 39.6762H88.6529C88.8624 39.6762 89.0338 39.5048 89.0338 39.2952V33.7333H96.0434C96.2529 33.7333 96.4243 33.5619 96.4243 33.3524V31.0857C96.4243 30.8762 96.2529 30.7048 96.0434 30.7048H89.0338V28.6762L89.5386 28.1714H97.11C97.3195 28.1714 97.491 28 97.491 27.7905V25.5238C97.491 25.3143 97.3195 25.1429 97.11 25.1429Z" fill="#111D3D"/>
</svg>
